<svg xmlns="http://www.w3.org/2000/svg" width="248" height="59.553" viewBox="0 0 248 59.553">
  <g id="Group_9009" data-name="Group 9009" transform="translate(-40 -40)">
    <path id="Path_4556" data-name="Path 4556" d="M44.158,40H79.7a4.171,4.171,0,0,1,4.158,4.158V95.394A4.171,4.171,0,0,1,79.7,99.553H44.158A4.171,4.171,0,0,1,40,95.394V44.158A4.171,4.171,0,0,1,44.158,40" transform="translate(0 0)" fill="#023f87" fill-rule="evenodd"/>
    <path id="Path_4557" data-name="Path 4557" d="M44.158,40H79.7a4.171,4.171,0,0,1,4.158,4.158V69.529H40V44.158A4.171,4.171,0,0,1,44.158,40" transform="translate(0 0)" fill="#008346" fill-rule="evenodd"/>
    <g id="Group_8985" data-name="Group 8985" transform="translate(45.433 45.87)">
      <path id="Path_4558" data-name="Path 4558" d="M47.615,48.227h3.891V58.666a21.643,21.643,0,0,0,.145,3.221,3.121,3.121,0,0,0,1.189,1.9,4.146,4.146,0,0,0,2.57.716,3.92,3.92,0,0,0,2.5-.677,2.678,2.678,0,0,0,1.012-1.663,21.733,21.733,0,0,0,.171-3.274V48.227h3.891V58.35a25.99,25.99,0,0,1-.315,4.9,5.427,5.427,0,0,1-1.163,2.42,5.887,5.887,0,0,1-2.268,1.571,9.872,9.872,0,0,1-3.707.584,10.67,10.67,0,0,1-4.187-.637,5.989,5.989,0,0,1-2.255-1.657A5.309,5.309,0,0,1,48,63.4a23.415,23.415,0,0,1-.381-4.89Z" transform="translate(-47.615 -48.227)" fill="#fff"/>
      <path id="Path_4559" data-name="Path 4559" d="M72.563,67.5V63.99l10.123-12.5h-8.98V48.227H87.814v3.024l-10.557,13H88.221V67.5Z" transform="translate(-54.762 -48.227)" fill="#fff"/>
    </g>
    <rect id="Rectangle_1906" data-name="Rectangle 1906" width="39.176" height="1.721" transform="translate(42.305 68.635)" fill="#fff"/>
    <path id="Path_4560" data-name="Path 4560" d="M80.081,43.015H44.8a1.529,1.529,0,0,0-1.522,1.522V95.882A1.527,1.527,0,0,0,44.8,97.4H80.081a1.517,1.517,0,0,0,1.075-.447h0a1.516,1.516,0,0,0,.445-1.075V44.537a1.529,1.529,0,0,0-1.522-1.522M44.8,41.513H80.081a3.031,3.031,0,0,1,3.025,3.024V95.882a3.014,3.014,0,0,1-.889,2.135h0a3.016,3.016,0,0,1-2.137.888H44.8a3.033,3.033,0,0,1-3.025-3.025V44.537A3.032,3.032,0,0,1,44.8,41.513Z" transform="translate(-0.507 -0.433)" fill="#fff"/>
    <g id="Group_8986" data-name="Group 8986" transform="translate(85.453 45.911)">
      <path id="Path_4561" data-name="Path 4561" d="M103.7,67.5V48.284h7.211a8.925,8.925,0,0,1,3.533.583,4.542,4.542,0,0,1,2.084,1.8,4.739,4.739,0,0,1,.754,2.537,4.363,4.363,0,0,1-.669,2.32,4.773,4.773,0,0,1-2.019,1.756,5.025,5.025,0,0,1,2.681,1.744,4.674,4.674,0,0,1,.937,2.91,5.61,5.61,0,0,1-.57,2.51,4.861,4.861,0,0,1-1.409,1.789,5.88,5.88,0,0,1-2.1.95,12.76,12.76,0,0,1-3.1.322Zm2.544-11.144H110.4a9.251,9.251,0,0,0,2.425-.223,2.7,2.7,0,0,0,1.462-.957,2.759,2.759,0,0,0,.491-1.678,3.09,3.09,0,0,0-.459-1.685,2.322,2.322,0,0,0-1.311-1,10.948,10.948,0,0,0-2.923-.269h-3.841Zm0,8.875h4.785a10.978,10.978,0,0,0,1.73-.092,4.131,4.131,0,0,0,1.468-.524,2.779,2.779,0,0,0,.97-1.068,3.336,3.336,0,0,0,.38-1.619,3.2,3.2,0,0,0-.55-1.868,2.906,2.906,0,0,0-1.528-1.115,9.47,9.47,0,0,0-2.812-.321h-4.444Z" transform="translate(-103.703 -48.284)" fill="#008346"/>
    </g>
    <g id="Group_8987" data-name="Group 8987" transform="translate(101.19 45.911)">
      <path id="Path_4562" data-name="Path 4562" d="M125.759,67.5V48.284h13.9v2.268H128.3v5.886h10.632v2.255H128.3v6.541h11.8V67.5Z" transform="translate(-125.759 -48.284)" fill="#008346"/>
    </g>
    <g id="Group_8988" data-name="Group 8988" transform="translate(116.612 45.911)">
      <path id="Path_4563" data-name="Path 4563" d="M147.373,67.5V48.284h2.544v9.53l9.543-9.53h3.448l-8.063,7.787L163.262,67.5h-3.356l-6.843-9.727-3.147,3.067V67.5Z" transform="translate(-147.373 -48.284)" fill="#008346"/>
    </g>
    <g id="Group_8989" data-name="Group 8989" transform="translate(139.021 45.582)">
      <path id="Path_4564" data-name="Path 4564" d="M193.227,60.632l2.544.642a8.564,8.564,0,0,1-2.878,4.778,7.931,7.931,0,0,1-5.08,1.645,9.129,9.129,0,0,1-5.054-1.265,7.9,7.9,0,0,1-2.962-3.664,13.08,13.08,0,0,1-1.016-5.152,11.321,11.321,0,0,1,1.147-5.237,7.859,7.859,0,0,1,3.264-3.4,9.536,9.536,0,0,1,4.66-1.16,7.877,7.877,0,0,1,4.85,1.468,7.619,7.619,0,0,1,2.74,4.13l-2.5.589A5.943,5.943,0,0,0,191,50.957,5.171,5.171,0,0,0,187.8,50a6.215,6.215,0,0,0-3.7,1.062,5.607,5.607,0,0,0-2.091,2.852,11.466,11.466,0,0,0-.6,3.69,11.717,11.717,0,0,0,.714,4.28,5.321,5.321,0,0,0,2.222,2.733,6.234,6.234,0,0,0,3.264.9,5.472,5.472,0,0,0,3.618-1.232A6.306,6.306,0,0,0,193.227,60.632Z" transform="translate(-178.781 -47.824)" fill="#008346"/>
    </g>
    <g id="Group_8990" data-name="Group 8990" transform="translate(156.043 45.57)">
      <path id="Path_4565" data-name="Path 4565" d="M202.637,58a10.443,10.443,0,0,1,2.569-7.492,8.738,8.738,0,0,1,6.633-2.707,9.2,9.2,0,0,1,4.8,1.271,8.3,8.3,0,0,1,3.257,3.546,11.52,11.52,0,0,1,1.121,5.159,11.321,11.321,0,0,1-1.18,5.231,8.05,8.05,0,0,1-3.343,3.493,9.544,9.544,0,0,1-4.666,1.187,9.083,9.083,0,0,1-4.851-1.311,8.434,8.434,0,0,1-3.238-3.578A10.846,10.846,0,0,1,202.637,58Zm2.622.039a7.7,7.7,0,0,0,1.868,5.473,6.517,6.517,0,0,0,9.413-.02,8.161,8.161,0,0,0,1.854-5.728,9.846,9.846,0,0,0-.793-4.1,6.1,6.1,0,0,0-2.32-2.714A6.293,6.293,0,0,0,211.853,50a6.5,6.5,0,0,0-4.647,1.855Q205.259,53.7,205.259,58.044Z" transform="translate(-202.637 -47.806)" fill="#008346"/>
    </g>
    <g id="Group_8991" data-name="Group 8991" transform="translate(175.293 45.911)">
      <path id="Path_4566" data-name="Path 4566" d="M229.617,67.5V48.284h3.827l4.549,13.607q.629,1.9.918,2.845.327-1.049,1.023-3.081l4.6-13.371h3.421V67.5h-2.451V51.417L239.921,67.5h-2.295l-5.558-16.361V67.5Z" transform="translate(-229.617 -48.284)" fill="#008346"/>
    </g>
    <g id="Group_8992" data-name="Group 8992" transform="translate(195.329 45.911)">
      <path id="Path_4567" data-name="Path 4567" d="M257.7,67.5V48.284h3.828l4.549,13.607q.629,1.9.918,2.845.328-1.049,1.023-3.081l4.6-13.371h3.421V67.5h-2.452V51.417L268,67.5h-2.295l-5.558-16.361V67.5Z" transform="translate(-257.698 -48.284)" fill="#008346"/>
    </g>
    <g id="Group_8993" data-name="Group 8993" transform="translate(214.671 45.57)">
      <path id="Path_4568" data-name="Path 4568" d="M284.805,58a10.446,10.446,0,0,1,2.569-7.492,8.738,8.738,0,0,1,6.633-2.707,9.2,9.2,0,0,1,4.8,1.271,8.305,8.305,0,0,1,3.257,3.546,11.52,11.52,0,0,1,1.122,5.159A11.321,11.321,0,0,1,302,63.013a8.053,8.053,0,0,1-3.342,3.493A9.549,9.549,0,0,1,294,67.693a9.078,9.078,0,0,1-4.85-1.311,8.435,8.435,0,0,1-3.239-3.578A10.846,10.846,0,0,1,284.805,58Zm2.622.039a7.7,7.7,0,0,0,1.868,5.473,6.517,6.517,0,0,0,9.413-.02,8.162,8.162,0,0,0,1.855-5.728,9.846,9.846,0,0,0-.793-4.1,6.1,6.1,0,0,0-2.32-2.714A6.291,6.291,0,0,0,294.021,50a6.5,6.5,0,0,0-4.648,1.855Q287.427,53.7,287.427,58.044Z" transform="translate(-284.805 -47.806)" fill="#008346"/>
    </g>
    <g id="Group_8994" data-name="Group 8994" transform="translate(233.999 45.911)">
      <path id="Path_4569" data-name="Path 4569" d="M311.9,67.5V48.284h6.621a16.079,16.079,0,0,1,3.421.275,6.522,6.522,0,0,1,2.818,1.376,7.826,7.826,0,0,1,2.275,3.284,12.9,12.9,0,0,1,.753,4.569,13.437,13.437,0,0,1-.511,3.88,9.416,9.416,0,0,1-1.311,2.8,6.961,6.961,0,0,1-1.75,1.744,7.13,7.13,0,0,1-2.295.963,13.058,13.058,0,0,1-3.087.328Zm2.543-2.268h4.1a9.954,9.954,0,0,0,2.982-.354,4.267,4.267,0,0,0,1.724-1,6.065,6.065,0,0,0,1.409-2.432,11.875,11.875,0,0,0,.505-3.7,8.949,8.949,0,0,0-.99-4.634,4.987,4.987,0,0,0-2.406-2.17,9.951,9.951,0,0,0-3.29-.393h-4.038Z" transform="translate(-311.895 -48.284)" fill="#008346"/>
    </g>
    <g id="Group_8995" data-name="Group 8995" transform="translate(251.493 45.911)">
      <path id="Path_4570" data-name="Path 4570" d="M336.412,67.5V48.284h2.544V67.5Z" transform="translate(-336.412 -48.284)" fill="#008346"/>
    </g>
    <g id="Group_8996" data-name="Group 8996" transform="translate(254.75 45.911)">
      <path id="Path_4571" data-name="Path 4571" d="M347.309,67.5V50.552h-6.332V48.284H356.21v2.268h-6.359V67.5Z" transform="translate(-340.977 -48.284)" fill="#008346"/>
    </g>
    <g id="Group_8997" data-name="Group 8997" transform="translate(85.351 73.914)">
      <path id="Path_4572" data-name="Path 4572" d="M118.006,100.339l2.544.642a8.563,8.563,0,0,1-2.878,4.778,7.929,7.929,0,0,1-5.08,1.645,9.125,9.125,0,0,1-5.054-1.265,7.9,7.9,0,0,1-2.962-3.664,13.074,13.074,0,0,1-1.016-5.152,11.321,11.321,0,0,1,1.147-5.237,7.859,7.859,0,0,1,3.264-3.4,9.537,9.537,0,0,1,4.661-1.16A7.88,7.88,0,0,1,117.483,89a7.628,7.628,0,0,1,2.74,4.129l-2.5.59a5.936,5.936,0,0,0-1.94-3.055,5.176,5.176,0,0,0-3.2-.957,6.213,6.213,0,0,0-3.7,1.062,5.605,5.605,0,0,0-2.091,2.851,11.492,11.492,0,0,0-.6,3.691,11.719,11.719,0,0,0,.714,4.28,5.324,5.324,0,0,0,2.222,2.733,6.234,6.234,0,0,0,3.264.9A5.47,5.47,0,0,0,116,104,6.3,6.3,0,0,0,118.006,100.339Z" transform="translate(-103.56 -87.531)" fill="#023f87"/>
    </g>
    <g id="Group_8998" data-name="Group 8998" transform="translate(102.865 74.241)">
      <path id="Path_4573" data-name="Path 4573" d="M128.107,107.208V87.99h2.544v7.892h9.989V87.99h2.543v19.218H140.64V98.15h-9.989v9.058Z" transform="translate(-128.107 -87.99)" fill="#023f87"/>
    </g>
    <g id="Group_8999" data-name="Group 8999" transform="translate(45.372 74.236)">
      <path id="Path_4574" data-name="Path 4574" d="M47.529,107.27V87.982h14.3v3.263H51.423v4.276h9.683V98.77H51.423v5.249H62.2v3.25Z" transform="translate(-47.529 -87.982)" fill="#fff"/>
      <path id="Path_4575" data-name="Path 4575" d="M69.969,107.27,76.56,97.2l-5.973-9.223h4.551l3.868,6.2,3.789-6.2h4.512l-6,9.367L87.9,107.27H83.2L78.929,100.6,74.64,107.27Z" transform="translate(-53.958 -87.982)" fill="#fff"/>
    </g>
    <g id="Group_9000" data-name="Group 9000" transform="translate(118.238 74.242)">
      <path id="Path_4576" data-name="Path 4576" d="M149.653,107.209l7.381-19.218h2.74l7.866,19.218h-2.9l-2.242-5.821h-8.036l-2.111,5.821Zm5.545-7.891h6.515L159.708,94q-.918-2.425-1.364-3.986a24.524,24.524,0,0,1-1.035,3.671Z" transform="translate(-149.653 -87.991)" fill="#023f87"/>
    </g>
    <g id="Group_9001" data-name="Group 9001" transform="translate(136.351 74.244)">
      <path id="Path_4577" data-name="Path 4577" d="M175.038,107.212V87.994h2.609l10.095,15.089V87.994h2.438v19.218h-2.609l-10.094-15.1v15.1Z" transform="translate(-175.038 -87.994)" fill="#023f87"/>
    </g>
    <g id="Group_9002" data-name="Group 9002" transform="translate(152.436 73.917)">
      <path id="Path_4578" data-name="Path 4578" d="M207.217,99.543V97.288l8.141-.013v7.132a14.4,14.4,0,0,1-3.867,2.248,11.473,11.473,0,0,1-4.09.753,10.915,10.915,0,0,1-5.146-1.212,8.016,8.016,0,0,1-3.493-3.507,11.035,11.035,0,0,1-1.18-5.126,11.887,11.887,0,0,1,1.174-5.237,7.8,7.8,0,0,1,3.376-3.612,10.578,10.578,0,0,1,5.073-1.179,10.047,10.047,0,0,1,3.769.675,6.254,6.254,0,0,1,2.642,1.881,8.364,8.364,0,0,1,1.455,3.147l-2.295.629a7.1,7.1,0,0,0-1.075-2.307,4.413,4.413,0,0,0-1.835-1.344,6.727,6.727,0,0,0-2.649-.505,7.806,7.806,0,0,0-3.015.531,5.637,5.637,0,0,0-2.052,1.4,6.661,6.661,0,0,0-1.212,1.9,10.06,10.06,0,0,0-.734,3.868,9.382,9.382,0,0,0,.885,4.3,5.663,5.663,0,0,0,2.576,2.569,7.975,7.975,0,0,0,3.593.839,8.53,8.53,0,0,0,3.224-.636,8.311,8.311,0,0,0,2.386-1.357V99.543Z" transform="translate(-197.582 -87.535)" fill="#023f87"/>
    </g>
    <g id="Group_9003" data-name="Group 9003" transform="translate(171.327 74.244)">
      <path id="Path_4579" data-name="Path 4579" d="M224.058,107.212V87.994h13.9v2.268H226.6v5.886h10.632V98.4H226.6v6.541h11.8v2.268Z" transform="translate(-224.058 -87.994)" fill="#023f87"/>
    </g>
    <g id="Group_9004" data-name="Group 9004" transform="translate(270.381 45.909)">
      <path id="Path_4580" data-name="Path 4580" d="M370.291,67.5V59.359l-7.407-11.077h3.094l3.789,5.794q1.048,1.626,1.954,3.251.865-1.507,2.1-3.395l3.723-5.65H380.5l-7.669,11.077V67.5Z" transform="translate(-362.884 -48.282)" fill="#008346"/>
    </g>
  </g>
</svg>
